<?xml version="1.0" encoding="UTF-8"?> <svg xmlns="http://www.w3.org/2000/svg" id="Calque_1" viewBox="0 0 180 39"><rect width="180" height="38.85" fill="none"></rect><g id="surface1"><path d="M56.87,6.56c-.47-.23-.67.21-.95.44-.09.07-.17.17-.25.25-.69.74-1.49,1.22-2.54,1.16-1.54-.09-2.85.4-4.01,1.58-.25-1.46-1.06-2.32-2.31-2.88-.65-.29-1.31-.58-1.77-1.21-.32-.45-.41-.95-.56-1.44-.1-.3-.2-.6-.54-.65-.37-.06-.51.25-.66.51-.58,1.06-.8,2.23-.78,3.42.05,2.67,1.17,4.8,3.41,6.31.25.17.32.34.24.6-.15.52-.33,1.03-.49,1.55-.1.33-.26.41-.61.26-1.22-.51-2.28-1.27-3.21-2.19-1.59-1.54-3.02-3.24-4.81-4.57-.42-.31-.84-.6-1.28-.87-1.82-1.78.24-3.24.72-3.41.5-.18.17-.8-1.44-.8-1.62,0-3.09.55-4.98,1.27-.28.11-.57.19-.86.25-1.71-.32-3.48-.4-5.34-.19-3.49.39-6.28,2.05-8.33,4.88-2.46,3.4-3.04,7.26-2.33,11.29.75,4.25,2.9,7.76,6.22,10.51,3.44,2.85,7.4,4.25,11.92,3.98,2.74-.16,5.8-.53,9.25-3.46.87.44,1.78.61,3.29.74,1.16.11,2.29-.06,3.16-.24,1.36-.29,1.27-1.56.78-1.79-3.99-1.87-3.12-1.11-3.91-1.72,2.03-2.41,5.08-4.92,6.28-13.02.09-.64.02-1.05,0-1.57,0-.32.07-.44.43-.48,1-.12,1.97-.39,2.86-.88,2.59-1.42,3.63-3.75,3.88-6.54.04-.43,0-.87-.46-1.09ZM34.33,31.7c-3.87-3.05-5.74-4.06-6.52-4.01-.72.04-.59.87-.43,1.42.17.53.38.9.69,1.37.21.31.36.77-.21,1.12-1.25.77-3.41-.26-3.51-.31-2.52-1.49-4.63-3.46-6.11-6.15-1.43-2.59-2.27-5.37-2.41-8.33-.03-.72.18-.97.88-1.1.94-.17,1.9-.21,2.83-.07,3.95.58,7.31,2.35,10.13,5.16,1.61,1.6,2.82,3.51,4.08,5.37,1.33,1.98,2.76,3.87,4.59,5.42.64.54,1.16.96,1.65,1.26-1.49.17-3.96.2-5.66-1.14ZM36.19,19.73c0-.32.25-.57.57-.57.07,0,.14.01.2.04.08.03.15.07.21.14.1.1.16.24.16.39,0,.32-.25.57-.57.57s-.56-.25-.56-.57h0ZM41.94,22.69c-.37.15-.74.28-1.09.3-.55.03-1.15-.2-1.48-.47-.51-.43-.87-.67-1.02-1.41-.06-.32-.03-.81.03-1.09.13-.61-.02-1-.44-1.35-.35-.29-.79-.37-1.28-.37-.18,0-.35-.08-.47-.15-.2-.1-.37-.35-.21-.67.05-.1.3-.35.35-.39.66-.37,1.42-.25,2.12.03.65.27,1.14.76,1.86,1.46.72.84.85,1.07,1.27,1.7.33.49.62,1,.83,1.58.12.36-.04.66-.47.84Z" fill="#4d6bfe"></path><path d="M107.36,15.58c-1.02,0-2.06.22-2.73.86-.06.05-.11.11-.17.17h-.49v-1.03h-2.69v16.26h2.69v-10.1c0-1.04.23-2.09.85-2.77.62-.69,1.58-.93,2.54-.93s1.91.24,2.54.93c.62.68.85,1.73.85,2.77s-.22,2.08-.85,2.76c-.62.69-1.59.93-2.54.93h-1.53v2.46h1.53c1.59,0,3.18-.41,4.23-1.55,1.04-1.14,1.41-2.88,1.41-4.61s-.37-3.47-1.41-4.61c-1.04-1.14-2.64-1.54-4.23-1.54ZM69.71,22.17c0,1.04-.23,2.09-.85,2.77s-1.58.93-2.54.93-1.91-.25-2.54-.93-.85-1.73-.85-2.77.23-2.09.85-2.77,1.58-.92,2.54-.92h1.53v-2.46h-1.53c-1.59,0-3.18.41-4.23,1.54-1.04,1.14-1.41,2.88-1.41,4.61s.37,3.47,1.41,4.61c1.04,1.14,2.64,1.54,4.23,1.54,1.02,0,2.05-.23,2.73-.86.06-.05.11-.11.16-.17h.5v1.03h2.69V12.06h-2.69v10.11ZM80.08,15.58c-1.65,0-3.31.42-4.39,1.6-1.08,1.17-1.47,2.98-1.47,4.77s.38,3.6,1.47,4.77c1.08,1.17,2.74,1.6,4.39,1.6s3.3-.42,4.39-1.6c.55-.61.93-1.38,1.16-2.23h-2.66c-.08.11-.16.22-.25.32-.65.71-1.65.96-2.64.96s-1.99-.25-2.63-.96c-.65-.71-.88-1.79-.88-2.87s.23-2.16.88-2.86c.65-.71,1.64-.96,2.63-.96s1.99.25,2.64.96c.45.49.7,1.15.81,1.88h-4.76v1.97h7.18v-.99c0-1.79-.39-3.6-1.47-4.77-1.08-1.17-2.74-1.6-4.39-1.6ZM93.6,15.58c-1.64,0-3.31.42-4.39,1.6-1.08,1.17-1.47,2.98-1.47,4.77s.39,3.6,1.47,4.77c1.08,1.17,2.74,1.6,4.39,1.6s3.31-.42,4.39-1.6c.56-.61.93-1.38,1.16-2.23h-2.67c-.07.11-.16.22-.25.32-.65.71-1.64.96-2.63.96s-1.99-.25-2.64-.96c-.65-.71-.88-1.79-.88-2.87s.23-2.16.88-2.86c.65-.71,1.65-.96,2.64-.96s1.99.25,2.63.96c.45.49.7,1.15.81,1.88h-4.77v1.97h7.18v-.99c0-1.79-.39-3.6-1.47-4.77s-2.74-1.6-4.39-1.6ZM125.05,21.74c-1.08-.69-2.74-.94-4.39-.94h.06c-.71,0-1.41-.1-1.87-.37s-.62-.68-.62-1.09.16-.82.62-1.09c.46-.27,1.17-.37,1.87-.37s1.41.1,1.87.37c.46.27.63.68.63,1.09h2.74c0-1.06-.35-2.12-1.33-2.81-.98-.7-2.48-.95-3.97-.95s-2.99.25-3.97.95c-.98.69-1.33,1.76-1.33,2.81s.35,2.13,1.33,2.82c.98.7,2.48.95,3.97.95.77,0,1.62.1,2.13.36.51.27.7.69.7,1.09s-.18.82-.7,1.09c-.51.27-1.29.36-2.07.36s-1.56-.09-2.07-.36c-.51-.27-.69-.68-.69-1.09h-3.16c0,1.06.38,2.12,1.47,2.82,1.08.7,2.74.94,4.39.94s3.3-.25,4.39-.94c1.08-.7,1.47-1.76,1.47-2.82s-.38-2.12-1.47-2.82ZM134.19,15.58c-1.65,0-3.31.42-4.39,1.6s-1.47,2.98-1.47,4.77.39,3.6,1.47,4.77,2.74,1.6,4.39,1.6,3.31-.42,4.39-1.6c.55-.61.93-1.38,1.16-2.23h-2.66c-.07.11-.16.22-.25.32-.65.71-1.64.96-2.64.96s-1.99-.25-2.63-.96-.88-1.79-.88-2.87.23-2.16.88-2.86c.65-.71,1.65-.96,2.63-.96s1.99.25,2.64.96c.45.49.7,1.15.81,1.88h-4.77v1.97h7.18v-.99c0-1.79-.39-3.6-1.47-4.77-1.08-1.17-2.74-1.6-4.39-1.6ZM147.72,15.58c-1.65,0-3.31.42-4.39,1.6-1.08,1.17-1.47,2.98-1.47,4.77s.39,3.6,1.47,4.77c1.08,1.17,2.74,1.6,4.39,1.6s3.3-.42,4.39-1.6c.55-.61.93-1.38,1.16-2.23h-2.67c-.07.11-.16.22-.25.32-.65.71-1.65.96-2.64.96s-1.99-.25-2.63-.96c-.65-.71-.88-1.79-.88-2.87s.23-2.16.88-2.86c.64-.71,1.64-.96,2.63-.96s1.99.25,2.64.96c.45.49.7,1.15.81,1.88h-4.76v1.97h7.18v-.99c0-1.79-.39-3.6-1.47-4.77s-2.74-1.6-4.39-1.6ZM155.39,11.49h2.7v16.83h-2.7V11.49ZM163.77,16.15l-4.43,5.43,4.43,6.75h3.34l-4.42-6.75,4.42-5.43h-3.34Z" fill="#4d6bfe"></path></g></svg> 