<svg width="95" height="95" viewBox="0 0 95 95" fill="none" xmlns="http://www.w3.org/2000/svg">
<g filter="url(#filter0_d_3023_5916)">
<path d="M47.4561 17C62.6196 17 74.9121 29.2925 74.9121 44.4561C74.9121 59.6196 62.6196 71.9121 47.4561 71.9121C32.2925 71.9121 20 59.6196 20 44.4561C20 29.2925 32.2925 17 47.4561 17Z" fill="white"/>
</g>
<path d="M56.0301 49.0239C55.435 49.0239 54.8881 49.2008 54.4217 49.5064L49.5322 47.6246C50.063 47.0938 50.4007 46.3539 50.4007 45.5337C50.4007 44.1826 49.484 43.0568 48.2616 42.7029V39.7757C49.5 39.4218 50.4007 38.296 50.4007 36.9449C50.4007 35.3205 49.0819 34.0016 47.4574 34.0016C45.8329 34.0016 44.5141 35.3205 44.5141 36.9449C44.5141 38.296 45.4308 39.4218 46.6532 39.7757V42.7029C45.4148 43.0568 44.5141 44.1826 44.5141 45.5337C44.5141 46.3539 44.8518 47.0777 45.3826 47.6246L40.4931 49.5064C40.0267 49.2008 39.4798 49.0239 38.8847 49.0239C37.2603 49.0239 35.9414 50.3427 35.9414 51.9672C35.9414 53.5917 37.2603 54.9105 38.8847 54.9105C40.5092 54.9105 41.8281 53.5917 41.8281 51.9672C41.8281 51.549 41.7477 51.163 41.5868 50.7931L47.4574 48.5413L53.328 50.7931C53.1671 51.1469 53.0867 51.549 53.0867 51.9672C53.0867 53.5917 54.4056 54.9105 56.0301 54.9105C57.6545 54.9105 58.9734 53.5917 58.9734 51.9672C58.9734 50.3427 57.6545 49.0239 56.0301 49.0239ZM46.1064 36.961C46.1064 36.2212 46.7015 35.6261 47.4413 35.6261C48.1812 35.6261 48.7763 36.2212 48.7763 36.961C48.7763 37.7009 48.1812 38.296 47.4413 38.296C46.7015 38.296 46.1064 37.7009 46.1064 36.961ZM47.4574 44.1987C48.1973 44.1987 48.7924 44.7938 48.7924 45.5337C48.7924 46.2735 48.1973 46.8686 47.4574 46.8686C46.7175 46.8686 46.1224 46.2735 46.1224 45.5337C46.1224 44.7938 46.7175 44.1987 47.4574 44.1987ZM38.8687 53.3182C38.1288 53.3182 37.5337 52.7231 37.5337 51.9833C37.5337 51.2434 38.1288 50.6483 38.8687 50.6483C39.6085 50.6483 40.2036 51.2434 40.2036 51.9833C40.2036 52.7231 39.6085 53.3182 38.8687 53.3182ZM56.0301 53.3182C55.2902 53.3182 54.6951 52.7231 54.6951 51.9833C54.6951 51.2434 55.2902 50.6483 56.0301 50.6483C56.7699 50.6483 57.365 51.2434 57.365 51.9833C57.365 52.7231 56.7699 53.3182 56.0301 53.3182Z" fill="#716BEB"/>
<defs>
<filter id="filter0_d_3023_5916" x="0" y="0" width="94.9121" height="94.9121" filterUnits="userSpaceOnUse" color-interpolation-filters="sRGB">
<feFlood flood-opacity="0" result="BackgroundImageFix"/>
<feColorMatrix in="SourceAlpha" type="matrix" values="0 0 0 0 0 0 0 0 0 0 0 0 0 0 0 0 0 0 127 0" result="hardAlpha"/>
<feOffset dy="3"/>
<feGaussianBlur stdDeviation="10"/>
<feComposite in2="hardAlpha" operator="out"/>
<feColorMatrix type="matrix" values="0 0 0 0 0.541176 0 0 0 0 0.541176 0 0 0 0 0.541176 0 0 0 0.160784 0"/>
<feBlend mode="normal" in2="BackgroundImageFix" result="effect1_dropShadow_3023_5916"/>
<feBlend mode="normal" in="SourceGraphic" in2="effect1_dropShadow_3023_5916" result="shape"/>
</filter>
</defs>
</svg>
