<svg width="36" height="36" viewBox="0 0 36 36" fill="none" xmlns="http://www.w3.org/2000/svg">
<mask id="mask0_3023_4485" style="mask-type:alpha" maskUnits="userSpaceOnUse" x="0" y="0" width="36" height="36">
<path d="M0 0H35.8662V35.8662H0V0Z" fill="black"/>
</mask>
<g mask="url(#mask0_3023_4485)">
<path d="M9.93599 27.3722L5.70378 31.6053C5.37733 31.9306 4.84933 31.9306 4.52288 31.6053L4.26106 31.3435C3.93642 31.0172 3.93642 30.4899 4.26106 30.1635L8.49327 25.9304C8.81983 25.6046 9.34851 25.6046 9.67506 25.9304L9.93599 26.1913C10.0929 26.3478 10.181 26.5602 10.181 26.7818C10.181 27.0033 10.0929 27.2158 9.93599 27.3722Z" fill="#FBBC04"/>
<path d="M21.2954 29.1413H26.713C29.706 29.1413 32.1312 26.7149 32.1297 23.7228V9.15302C32.1297 6.16036 29.7039 3.73534 26.7121 3.73633C23.7194 3.73633 21.2944 6.16216 21.2954 9.15392V29.1413Z" fill="#4285F4"/>
<path d="M12.3292 29.1414C15.3217 29.1424 17.7478 26.7163 17.7468 23.7238C17.7468 20.7308 15.3204 18.3056 12.3283 18.3071C9.33566 18.3071 6.91063 20.733 6.91162 23.7247C6.91162 26.7177 9.3371 29.1429 12.3292 29.1414Z" fill="#FBBC04"/>
<path d="M25.0796 29.1414H19.801C16.808 29.1414 14.3828 26.715 14.3843 23.7229L14.3843 16.6258C14.3833 13.6337 16.8089 11.2078 19.801 11.2083C22.7934 11.2073 25.2196 13.6334 25.2186 16.6258V29.0033C25.2186 29.0795 25.1558 29.1414 25.0796 29.1414Z" fill="#34A853"/>
<path d="M25.2183 29.0031V16.6257C25.2183 14.2099 23.6182 12.0858 21.2958 11.4189L21.2954 29.1412H25.0793C25.1161 29.1415 25.1514 29.127 25.1775 29.1011C25.2036 29.0752 25.2183 29.0399 25.2183 29.0031Z" fill="#1967D2"/>
<path d="M17.7465 23.8285C17.7465 21.6293 16.4177 19.6491 14.3833 18.8159L14.3841 23.8285C14.3841 25.3708 15.0297 26.7633 16.0653 27.7496C17.14 26.7287 17.7479 25.3109 17.7465 23.8285Z" fill="#EA4335"/>
</g>
</svg>
