<?xml version="1.0" encoding="UTF-8"?> <svg xmlns="http://www.w3.org/2000/svg" id="Calque_1" viewBox="0 0 438.83 296.51"><path d="M204.25.57c46.74-4.35,89.49,16.6,124.62,45.58,6.01,4.95,25.7,19.51,7.44,20.69-37.48-30.36-77.63-59.1-128.6-55.16-36.26,2.8-77.62,30.31-104.02,54.19-5.61,5.08-20.54,18.8-24.23,24.25-1.09,1.6-2.37,3.94-1.92,5.9.57,2.51,23.65,25.14,27.43,28.58,35.79,32.45,81.61,58.86,131.7,51.28,38.4-5.8,69.82-30.54,99.6-53.53,7.2-3.18,9.04,4.78,4.15,10.56-10.49,12.41-40.34,31.75-55.26,39.14-49.53,24.55-90.56,22.83-138.92-3.24-32.42-17.47-62.07-44.79-84.36-73.78-.48-5.16,27.45-33.19,32.89-38.09C123.28,31.25,165.26,4.2,204.25.57Z"></path><path d="M275.57,94.59c0,31.46-25.5,56.97-56.97,56.97s-56.97-25.5-56.97-56.97,25.5-56.97,56.97-56.97,56.97,25.5,56.97,56.97ZM263.89,94.44c0-24.93-20.21-45.13-45.13-45.13s-45.13,20.21-45.13,45.13,20.21,45.13,45.13,45.13,45.13-20.21,45.13-45.13Z"></path><path d="M368.69,74.62c11.02-.13,10.25,13.54,2.25,14.9-12.34,2.09-15.28-14.75-2.25-14.9Z"></path><path d="M345.75,96.14c13.47-4.06,16.85,15.98,2.29,15.17-8.25-.46-7.38-13.63-2.29-15.17Z"></path><path d="M214.37,79.59c27.41-5.66,23.74,34.23,2.61,31.35-16.82-2.3-18.7-28.03-2.61-31.35Z"></path><path d="M29.22,232.62c6.5,0,11.73,2.22,15.74,6.67,4.01,4.45,6.02,9.46,6.02,15.05s-2.01,10.77-6.02,15.13c-4.01,4.36-9.42,6.54-16.18,6.54H12.17v19.1H0v-62.53h29.31l-.09.04ZM28.21,265.07c3.18,0,5.76-1.09,7.76-3.23s3.01-4.62,3.01-7.46-.96-5.32-2.88-7.46-4.32-3.23-7.24-3.23H12.08v21.46h16.22l-.09-.09Z"></path><path d="M104.86,296.38c-9.42,0-17.23-3.1-23.46-9.33s-9.38-14-9.38-23.29,3.14-16.92,9.38-23.11c6.24-6.19,14.09-9.29,23.51-9.29s17.23,3.1,23.46,9.29c6.24,6.19,9.33,13.91,9.33,23.11s-3.1,17.05-9.33,23.29-14.04,9.33-23.46,9.33h-.04ZM104.82,285.09c6.06,0,10.99-2.05,14.78-6.11,3.79-4.06,5.67-9.11,5.67-15.18s-1.88-10.99-5.67-15.05-8.72-6.06-14.78-6.06-10.99,2.01-14.78,6.06-5.67,9.07-5.67,15.05,1.88,11.12,5.67,15.18c3.79,4.06,8.72,6.06,14.78,6.06v.04Z"></path><path d="M206.15,283.86v11.25h-43.39v-62.53h12.25v51.28h31.14Z"></path><path d="M230.08,232.58h12.43v62.53h-12.43v-62.53Z"></path><path d="M295.65,273.27h-13.3v21.89h-12.17v-62.53h30.44c6.41,0,11.6,2.05,15.52,6.19,3.92,4.14,5.89,8.85,5.89,14.13,0,4.23-1.22,8.07-3.62,11.56s-5.76,5.97-10.03,7.5l15.52,23.11h-14.13l-14.13-21.85ZM282.3,262.54h17.49c3.1,0,5.58-.92,7.5-2.75,1.92-1.83,2.88-4.1,2.88-6.8s-.92-4.8-2.79-6.63-4.23-2.75-7.11-2.75h-17.92l-.04,18.93Z"></path><path d="M348.27,232.58h12.43v62.53h-12.43v-62.53Z"></path><path d="M413.66,296.51c-7.2,0-13.34-1.83-18.4-5.49s-8.55-8.15-10.47-13.48l11.73-3.53c1.31,3.45,3.53,6.24,6.67,8.42s6.89,3.27,11.21,3.27c3.53,0,6.41-.78,8.63-2.35s3.31-3.4,3.31-5.54c0-1.66-.61-3.1-1.88-4.32s-3.4-2.31-6.41-3.23l-15.96-5.02c-4.36-1.35-7.81-3.4-10.38-6.11s-3.84-5.97-3.79-9.86c-.04-4.93,2.09-9.16,6.37-12.65s9.64-5.23,16.05-5.23,12.17,1.53,17.01,4.58c4.84,3.05,8.15,6.85,9.94,11.43l-11.38,3.31c-1.31-2.57-3.36-4.62-6.11-6.19s-5.84-2.35-9.29-2.35c-2.97,0-5.36.65-7.24,1.96-1.88,1.31-2.79,2.92-2.79,4.8,0,2.75,2.01,4.71,5.97,5.89l15.52,5.02c5.45,1.66,9.64,3.75,12.52,6.28s4.32,6.15,4.32,10.86c0,5.45-2.31,10.03-6.93,13.78-4.62,3.75-10.64,5.63-18.01,5.63l-.22.13Z"></path></svg> 