<svg width="42" height="42" viewBox="0 0 42 42" fill="none" xmlns="http://www.w3.org/2000/svg">
<circle cx="21" cy="21" r="21" fill="white"/>
<path d="M37.1848 21.968L37.1027 21.8285C37.0863 21.8039 37.0781 21.7875 37.0617 21.7629L31.0406 12.5918L23.2559 18.3914L28.9489 27.1523C28.9734 27.1934 28.998 27.2262 29.0226 27.2672L29.0555 27.3164C29.9414 28.5715 31.3934 29.3918 33.0422 29.3918C35.7328 29.3918 37.9149 27.2097 37.9149 24.5191C37.9066 23.584 37.6442 22.7144 37.1848 21.968Z" fill="#95C748"/>
<circle cx="8.95762" cy="24.5191" r="4.87266" fill="#35BFC0"/>
<mask id="mask0_3023_4490" style="mask-type:alpha" maskUnits="userSpaceOnUse" x="22" y="10" width="16" height="20">
<path d="M37.1847 21.9682L37.1027 21.8287C37.0862 21.8041 37.078 21.7877 37.0616 21.7631L31.0405 12.592C30.1792 11.1975 28.6534 10.2705 26.8898 10.2705C24.1991 10.2705 22.0171 12.4525 22.0171 15.1432C22.0171 16.39 22.4929 17.5303 23.264 18.3834L28.9569 27.1443C28.9816 27.1853 29.0062 27.2182 29.0308 27.2592L29.0636 27.3084C29.9495 28.5635 31.4015 29.3838 33.0503 29.3838C35.7409 29.3838 37.923 27.2018 37.923 24.5111C37.9066 23.5842 37.644 22.7146 37.1847 21.9682Z" fill="black"/>
</mask>
<g mask="url(#mask0_3023_4490)">
<path d="M31.7869 15.1594C31.7869 12.4688 29.6049 10.2868 26.9143 10.2868C24.2236 10.2868 22.0416 12.4688 22.0416 15.1594C22.0416 16.152 22.3369 17.0707 22.8455 17.8336L19.1459 12.6H19.1377C18.2764 11.2137 16.7506 10.2786 14.9869 10.2786C13.2232 10.2786 11.6975 11.2055 10.8443 12.6L4.95448 21.7875C5.83222 20.4915 7.30878 19.6383 8.99043 19.6383C10.7623 19.6383 12.3045 20.5817 13.1576 21.9926H13.1658L17.0131 27.3985H17.0213C17.9072 28.5961 19.3264 29.3836 20.9424 29.3836C22.5584 29.3836 23.9775 28.6043 24.8635 27.3985H24.8717L24.9127 27.3329C25.0111 27.1934 25.1014 27.0457 25.1916 26.8981L30.9584 17.8829C31.4752 17.1118 31.7869 16.1766 31.7869 15.1594ZM23.2064 18.3258C23.2064 18.3176 23.1982 18.3176 23.19 18.3094C23.1982 18.3094 23.1982 18.3176 23.2064 18.3258ZM23.5674 18.7032C23.6002 18.7278 23.6248 18.7524 23.6494 18.777C23.6248 18.7606 23.6002 18.7278 23.5674 18.7032ZM24.5518 19.425C24.5518 19.425 24.56 19.425 24.56 19.4333C24.56 19.4333 24.56 19.425 24.5518 19.425ZM25.0768 19.6711C25.1178 19.6875 25.1588 19.7039 25.1998 19.7122C25.1506 19.7039 25.1178 19.6957 25.0768 19.6711ZM25.5936 19.8516C25.651 19.868 25.7084 19.8844 25.7658 19.8926C25.7166 19.8844 25.651 19.868 25.5936 19.8516ZM26.1678 19.9747L26.34 19.9993C26.2744 19.9911 26.2252 19.9828 26.1678 19.9747ZM30.1135 18.8262C30.1545 18.7852 30.1955 18.7524 30.2447 18.7114C30.2037 18.7524 30.1545 18.7852 30.1135 18.8262ZM28.5795 19.7286C28.6287 19.7122 28.6861 19.6876 28.7354 19.6711C28.6861 19.6957 28.6369 19.7122 28.5795 19.7286ZM30.5154 18.4325C30.5482 18.3914 30.5893 18.3586 30.6221 18.3176C30.5811 18.3586 30.5482 18.3914 30.5154 18.4325ZM4.82324 21.9844C4.86426 21.927 4.89706 21.8696 4.92988 21.804L4.82324 21.9844Z" fill="#3252A0"/>
</g>
<circle cx="26.8979" cy="15.1675" r="4.88086" fill="#F38334"/>
<path d="M26.8898 20.0401C25.1918 20.0401 23.6906 19.1624 22.8211 17.8417L19.1133 12.6081C18.252 11.2218 16.718 10.2866 14.9625 10.2866C13.207 10.2866 11.673 11.2136 10.8199 12.6081L4.92188 21.7956C5.79961 20.4995 7.27617 19.6464 8.95781 19.6464C10.7297 19.6464 12.2719 20.5898 13.125 22.0007H13.1332L16.9805 27.4066H16.9887C17.8746 28.6042 19.2937 29.3917 20.9098 29.3917C22.5176 29.3917 23.9449 28.6124 24.8309 27.4066H24.8391L24.8801 27.3409C24.9785 27.2015 25.0688 27.0538 25.159 26.9062L30.9504 17.8909C30.0727 19.187 28.5715 20.0401 26.8898 20.0401ZM4.79883 21.9843C4.83984 21.9268 4.87266 21.8694 4.91367 21.8038L4.79883 21.9843Z" fill="#3152A0"/>
</svg>
