<?xml version="1.0" encoding="UTF-8"?> <svg xmlns="http://www.w3.org/2000/svg" id="Calque_1" viewBox="0 0 180 39"><rect width="180" height="38.85" fill="none"></rect><g id="surface1"><path d="M20.08,5.07h-6.11v6.08h6.11v-6.08Z"></path><path d="M44.53,5.07h-6.11v6.08h6.11v-6.08Z"></path><path d="M26.19,11.15h-12.21v6.08h12.21v-6.08Z"></path><path d="M44.53,11.15h-12.21v6.08h12.21v-6.08Z"></path><path d="M44.53,17.21H13.97v6.08h30.56v-6.08Z"></path><path d="M20.08,23.29h-6.11v6.08h6.11v-6.08Z"></path><path d="M32.29,23.29h-6.11v6.08h6.11v-6.08Z"></path><path d="M44.53,23.29h-6.11v6.08h6.11v-6.08Z"></path><path d="M26.19,29.37H7.85v6.08h18.34v-6.08Z"></path><path d="M50.64,29.37h-18.34v6.08h18.34v-6.08Z"></path><path d="M20.08,5.07h-6.11v6.08h6.11v-6.08Z" fill="#ffd800"></path><path d="M44.53,5.07h-6.11v6.08h6.11v-6.08Z" fill="#ffd800"></path><path d="M26.19,11.15h-12.21v6.08h12.21v-6.08Z" fill="#ffaf00"></path><path d="M44.53,11.15h-12.21v6.08h12.21v-6.08Z" fill="#ffaf00"></path><path d="M44.53,17.21H13.97v6.08h30.56v-6.08Z" fill="#ff8205"></path><path d="M20.08,23.29h-6.11v6.08h6.11v-6.08Z" fill="#fa500f"></path><path d="M32.29,23.29h-6.11v6.08h6.11v-6.08Z" fill="#fa500f"></path><path d="M44.53,23.29h-6.11v6.08h6.11v-6.08Z" fill="#fa500f"></path><path d="M26.19,29.37H7.85v6.08h18.34v-6.08Z" fill="#e10500"></path><path d="M50.64,29.37h-18.34v6.08h18.34v-6.08Z" fill="#e10500"></path><path d="M62.14,28.81V10.54h5.5l3.3,12.46,3.27-12.46h5.52v18.27h-3.42v-14.37l-3.61,14.37h-3.54l-3.59-14.37v14.37h-3.42Z"></path><path d="M83.35,13.8v-3.24h3.49v3.24h-3.49ZM83.35,28.81v-13.24h3.49v13.24h-3.49Z"></path><path d="M89.18,25.03l3.49-.54c.14.69.44,1.2.9,1.54.46.34,1.1.54,1.9.54s1.59-.17,2.03-.49c.31-.22.46-.54.46-.93s-.07-.49-.24-.66c-.17-.18-.56-.32-1.17-.47-2.81-.62-4.59-1.2-5.35-1.72-1.05-.71-1.56-1.72-1.56-2.97s.44-2.11,1.34-2.9c.91-.78,2.3-1.18,4.2-1.18s3.15.3,4.03.88c.88.59,1.49,1.47,1.81,2.62l-3.3.62c-.15-.52-.42-.91-.81-1.18s-.95-.42-1.68-.42-1.59.12-1.98.39c-.27.17-.39.42-.39.71s.12.46.34.63c.32.22,1.39.57,3.25.98,1.85.42,3.15.93,3.88,1.57.73.62,1.1,1.5,1.1,2.6s-.51,2.26-1.51,3.14c-1,.88-2.49,1.3-4.47,1.3s-3.22-.37-4.27-1.1-1.73-1.72-2.05-2.97l.05-.02Z"></path><path d="M110.58,15.59v2.8h-2.39v5.34c0,1.08,0,1.72.07,1.89.05.17.15.32.32.44.17.13.36.17.58.17s.78-.12,1.39-.34l.3,2.72c-.81.35-1.74.52-2.76.52s-1.2-.1-1.71-.32-.88-.49-1.1-.84c-.22-.34-.39-.79-.48-1.37-.08-.41-.13-1.23-.13-2.47v-5.77h-1.61v-2.79h1.61v-2.63l3.49-2.03v4.68h2.42Z"></path><path d="M116.34,28.81h-3.49v-13.24h3.25v1.89c.56-.88,1.05-1.47,1.49-1.76.44-.29.95-.42,1.51-.42s1.56.22,2.3.66l-1.08,3.06c-.58-.39-1.12-.56-1.63-.56s-.91.15-1.25.42-.61.76-.8,1.47c-.2.71-.29,2.18-.29,4.44v4.1-.05Z"></path><path d="M125.5,19.61l-3.17-.57c.37-1.28.98-2.23,1.83-2.84.88-.62,2.15-.93,3.88-.93s2.71.2,3.47.57c.75.37,1.29.84,1.61,1.4.31.57.46,1.62.46,3.14l-.05,4.1c0,1.15.05,2.01.17,2.58.12.56.32,1.15.63,1.76h-3.44c-.1-.22-.2-.59-.35-1.03-.05-.2-.09-.35-.12-.42-.58.59-1.22,1.03-1.9,1.3s-1.39.44-2.17.44c-1.37,0-2.42-.36-3.2-1.1s-1.17-1.67-1.17-2.8.17-1.42.54-2.01c.36-.59.85-1.03,1.49-1.35.63-.32,1.56-.59,2.78-.81,1.63-.32,2.76-.59,3.39-.86v-.34c0-.66-.17-1.15-.49-1.45-.34-.3-.95-.44-1.88-.44s-1.1.12-1.44.36c-.34.25-.63.69-.85,1.3h-.03ZM130.17,22.45c-.44.15-1.15.32-2.12.54-.97.19-1.61.41-1.9.61-.47.32-.69.74-.69,1.23s.18.91.54,1.28c.37.37.83.54,1.39.54s1.22-.19,1.81-.61c.41-.32.7-.71.83-1.15.09-.29.14-.86.14-1.72v-.71Z"></path><path d="M137.03,28.81V10.54h3.49v18.27h-3.49Z"></path><path d="M166.66,28.81h-4.01l-1.59-4.14h-7.28l-1.49,4.14h-3.91l7.09-18.27h3.88l7.28,18.27h.02ZM159.89,21.59l-2.51-6.77-2.47,6.77h4.98Z"></path><path d="M168.49,28.81V10.54h3.66v18.27h-3.66Z"></path></g></svg> 