<?xml version="1.0" encoding="UTF-8"?> <svg xmlns="http://www.w3.org/2000/svg" id="Calque_1" viewBox="0 0 180 39"><rect y=".06" width="180" height="38.85" fill="none"></rect><path d="M29.39,37.48h-1v-10.25l-9.47,9.48v-10.27h-4.08v-14.57h4.07V1.67l9.48,9.48V1.49h1v9.71l.02-.02h0S38.91,1.67,38.91,1.67v10.21h4.07v14.57h-4.07v10.27l-9.52-9.53v10.29ZM19.92,22.1v12.21l8.47-8.48v-12.21l-8.47,8.48ZM29.41,25.8l8.5,8.5v-12.21s-8.5-8.5-8.5-8.5v12.21ZM38.91,25.46h3.07v-12.57h-11.86s8.79,8.8,8.79,8.8v3.77ZM15.84,25.46h3.07v-3.77l8.79-8.79h-11.86s0,12.57,0,12.57ZM30.12,11.88h7.79v-7.79l-7.79,7.79ZM19.91,11.88h7.79l-7.79-7.79v7.79Z" fill="#20808d"></path><path d="M70.3,14.51c.59-1.11,1.42-1.96,2.49-2.56,1.07-.6,2.32-.9,3.76-.9s2.62.3,3.62.89c1,.59,1.74,1.37,2.23,2.35.49.98.74,2.05.74,3.21v1.61h-11.17c.09,1.4.56,2.51,1.41,3.33.85.82,2,1.24,3.43,1.24,1.17,0,2.06-.24,2.68-.71.62-.47,1.07-1.13,1.36-1.97h2.56c-.34,1.31-1.04,2.44-2.09,3.4-1.05.96-2.55,1.44-4.51,1.44-1.47,0-2.77-.3-3.89-.9-1.12-.6-1.99-1.45-2.6-2.56-.61-1.11-.92-2.42-.92-3.92s.3-2.81.89-3.92h0ZM80.45,17.09c0-1.22-.31-2.17-.94-2.86-.63-.69-1.62-1.03-2.96-1.03-1.26,0-2.28.34-3.08,1.01-.8.67-1.29,1.63-1.47,2.89h8.45ZM86.5,11.45v2.23c0,.13.06.19.19.19.07,0,.12-.02.16-.05s.07-.11.11-.21c.47-1.47,1.62-2.2,3.47-2.2h1.18v2.41h-1.54c-1.2,0-2.1.29-2.69.86s-.89,1.51-.89,2.82v7.92h-2.42v-13.96h2.43,0ZM105.84,22.47c-.64,1.12-1.46,1.95-2.48,2.51s-2.11.83-3.27.83c-2.3,0-3.91-.91-4.85-2.74-.07-.14-.16-.21-.27-.21s-.16.05-.16.16v7.49h-2.42V11.45h2.42v2.39c0,.11.05.16.16.16s.2-.07.27-.21c.93-1.83,2.55-2.74,4.85-2.74,1.17,0,2.26.28,3.27.83,1.01.55,1.84,1.39,2.48,2.51.64,1.12.96,2.47.96,4.04s-.32,2.92-.96,4.04h0ZM103.04,14.58c-.89-.92-2.06-1.38-3.51-1.38s-2.62.46-3.51,1.38c-.89.92-1.21,2.21-1.21,3.85s.33,2.93,1.21,3.85c.89.92,2.06,1.38,3.51,1.38s2.62-.46,3.51-1.38c.89-.92,1.33-2.21,1.33-3.85s-.44-2.93-1.33-3.85ZM110.31,6.08v19.33h-2.42V6.09h2.42ZM112.31,14.51c.59-1.11,1.42-1.96,2.49-2.56,1.07-.6,2.32-.9,3.75-.9s2.63.3,3.62.89c1,.59,1.74,1.37,2.23,2.35.49.98.74,2.05.74,3.21v1.61h-11.17c.09,1.4.56,2.51,1.41,3.33.85.82,2,1.24,3.43,1.24,1.17,0,2.06-.24,2.68-.71.62-.47,1.07-1.13,1.36-1.97h2.56c-.34,1.31-1.04,2.44-2.09,3.4-1.05.96-2.55,1.44-4.51,1.44-1.47,0-2.77-.3-3.89-.9-1.12-.6-1.99-1.45-2.6-2.56-.61-1.11-.92-2.42-.92-3.92s.3-2.81.89-3.92h0ZM122.45,17.09c0-1.22-.31-2.17-.94-2.86-.63-.69-1.61-1.03-2.96-1.03-1.25,0-2.28.34-3.08,1.01-.8.67-1.29,1.63-1.47,2.89,0,0,8.45,0,8.45,0ZM124.07,24.87l5.54-6.85-4.55-6.04v-.54h2.67l3.8,5.21,4.09-5.21h2.72v.56l-5.22,6.42,4.82,6.44v.54h-2.61l-4.12-5.61-4.41,5.61h-2.72v-.54h0ZM141.85,6.91v3.02h-2.83v-3.02h2.83ZM141.71,25.41h-2.42v-13.96h2.42v13.96ZM142.47,11.45h2.64v-3.76h2.42v3.76h2.77l.68,2.05h-3.46v6.68c0,.91-.02,1.59-.07,2.03-.04.44-.07.7-.07.79,0,.13.04.22.11.3.07.07.17.11.3.11.09,0,.35-.02.79-.07.44-.05,1.12-.07,2.03-.07h.94v2.15h-1.88c-1.54,0-2.69-.38-3.45-1.13-.75-.75-1.13-1.9-1.13-3.44v-7.35h-2.64v-2.05h0ZM151.03,11.45h2.47l4.01,11.71c.05.14.14.33.41.33s.36-.19.41-.33l4.01-11.71h2.3v.54l-5.02,15.06c-.43,1.29-1.04,2.19-1.82,2.7-.78.51-1.69.76-3.2.76h-2.58v-2.15h1.97c.63,0,1.14.02,1.53.07.39.05.65.07.75.07.3,0,.51-.13.62-.4l.75-2.04c.09-.21.1-.38.03-.48-.04-.07-.08-.12-.13-.13-.05-.02-.13-.03-.24-.03h-1.64l-4.65-13.96h0,0ZM67.87,22.49c-.64,1.12-1.46,1.95-2.48,2.51s-2.1.83-3.27.83c-2.3,0-3.91-.91-4.85-2.74-.07-.14-.16-.21-.27-.21s-.16.05-.16.16v7.49h-2.42V11.48h2.42v2.39c0,.11.05.16.16.16s.2-.07.27-.21c.93-1.83,2.55-2.74,4.85-2.74,1.17,0,2.26.28,3.27.83s1.84,1.39,2.48,2.51c.64,1.12.96,2.47.96,4.04s-.32,2.92-.96,4.04ZM65.07,14.6c-.89-.92-2.06-1.38-3.51-1.38s-2.62.46-3.51,1.38c-.89.92-1.22,2.21-1.22,3.85s.33,2.93,1.22,3.85c.89.92,2.06,1.38,3.51,1.38s2.62-.46,3.51-1.38c.89-.92,1.33-2.21,1.33-3.85s-.44-2.93-1.33-3.85Z" fill="#13343b"></path></svg> 