<svg xmlns="http://www.w3.org/2000/svg" viewBox="0 0 1000 920" role="img" aria-label="Onboarding Step 5 of 5 titled Advanced settings, showing a prompts table with 15 rows of radiology AI prompts, their Trafic level (Eleve, Moyen, Faible), and axis tags (Expertise, Innovation, Technology, Policy, Customer), plus Ask Poli AI banner and Back/Start analysis buttons.">
  <defs>
    <filter id="qs5-shadow" x="-10%" y="-10%" width="120%" height="120%">
      <feDropShadow dx="0" dy="2" stdDeviation="6" flood-color="#0F172A" flood-opacity="0.06"/>
    </filter>
    <style>
      .qs5-bg { fill: #FFFFFF; stroke: #E5E7EB; stroke-width: 1; }
      .qs5-logo { font: 800 22px "Geist", "Inter", system-ui, sans-serif; fill: #0A0A0A; }
      .qs5-step { font: 500 12px "Geist", "Inter", system-ui, sans-serif; fill: #0A0A0A; }
      .qs5-h2 { font: 700 22px "Geist", "Inter", system-ui, sans-serif; fill: #0A0A0A; }
      .qs5-sub { font: 400 13px "Geist", "Inter", system-ui, sans-serif; fill: #64748B; }
      .qs5-ask-bg { fill: #EAF2FF; stroke: #C7DEFF; stroke-width: 1; }
      .qs5-ask-title { font: 600 13px "Geist", "Inter", system-ui, sans-serif; fill: #0A0A0A; }
      .qs5-ask-body { font: 400 11px "Geist", "Inter", system-ui, sans-serif; fill: #475569; }
      .qs5-try-bg { fill: #1E3A8A; }
      .qs5-try-tx { font: 600 12px "Geist", "Inter", system-ui, sans-serif; fill: #FFFFFF; }
      .qs5-col-head { font: 600 12px "Geist", "Inter", system-ui, sans-serif; fill: #64748B; letter-spacing: 0.04em; }
      .qs5-row-bg { fill: #FFFFFF; stroke: #E5E7EB; stroke-width: 1; }
      .qs5-row-sel-bg { fill: #FFFFFF; stroke: #0062FF; stroke-width: 1.2; }
      .qs5-row-tx { font: 400 12px "Geist", "Inter", system-ui, sans-serif; fill: #0A0A0A; }
      .qs5-traffic-tx { font: 500 11px "Geist", "Inter", system-ui, sans-serif; fill: #475569; }
      .qs5-axis-expertise-bg { fill: #E5F0FF; }
      .qs5-axis-expertise-tx { font: 500 10px "Geist", "Inter", system-ui, sans-serif; fill: #1E3A8A; }
      .qs5-axis-inno-bg { fill: #FFEAD0; }
      .qs5-axis-inno-tx { font: 500 10px "Geist", "Inter", system-ui, sans-serif; fill: #B45309; }
      .qs5-axis-tech-bg { fill: #DCFCE7; }
      .qs5-axis-tech-tx { font: 500 10px "Geist", "Inter", system-ui, sans-serif; fill: #15803D; }
      .qs5-axis-policy-bg { fill: #F3E8FF; }
      .qs5-axis-policy-tx { font: 500 10px "Geist", "Inter", system-ui, sans-serif; fill: #6B21A8; }
      .qs5-axis-customer-bg { fill: #FEE2E2; }
      .qs5-axis-customer-tx { font: 500 10px "Geist", "Inter", system-ui, sans-serif; fill: #B91C1C; }
      .qs5-back-bg { fill: #F1F5F9; stroke: #E5E7EB; stroke-width: 1; }
      .qs5-back-tx { font: 600 13px "Geist", "Inter", system-ui, sans-serif; fill: #475569; }
      .qs5-primary-bg { fill: #0062FF; }
      .qs5-primary-tx { font: 600 13px "Geist", "Inter", system-ui, sans-serif; fill: #FFFFFF; }
    </style>
  </defs>

  <rect class="qs5-bg" x="1" y="1" width="998" height="918" rx="14" ry="14" filter="url(#qs5-shadow)"/>

  <!-- Logo + step -->
  <text class="qs5-logo" x="28" y="46"><tspan fill="#1E3A8A">P</tspan>oli<tspan fill="#0062FF">&#9711;</tspan>ris</text>
  <text class="qs5-step" x="28" y="74">Step 5 of 5</text>
  <line x1="28" y1="84" x2="200" y2="84" stroke="#0062FF" stroke-width="2"/>
  <line x1="208" y1="84" x2="380" y2="84" stroke="#0062FF" stroke-width="2"/>
  <line x1="388" y1="84" x2="560" y2="84" stroke="#0062FF" stroke-width="2"/>
  <line x1="568" y1="84" x2="740" y2="84" stroke="#0062FF" stroke-width="2"/>
  <line x1="748" y1="84" x2="920" y2="84" stroke="#0062FF" stroke-width="2"/>

  <!-- H2 -->
  <text class="qs5-h2" x="28" y="130">Advanced settings</text>
  <text class="qs5-sub" x="28" y="152">Chose your product and start you analysis.</text>

  <!-- Ask Poli AI banner -->
  <rect class="qs5-ask-bg" x="28" y="172" width="944" height="76" rx="12"/>
  <text x="44" y="198" font-family="Geist, system-ui" font-size="14" font-weight="700" fill="#0062FF">&#9993;</text>
  <text class="qs5-ask-title" x="68" y="198">Ask Poli AI, if you need help, just ask!</text>
  <text class="qs5-ask-body" x="44" y="218">Lorem ipsum dolor sit amet, consectetur adipiscing elit. Ut et massa mi. Aliquam in hendrerit urna. Pellentesque sit amet sapien fringilla.</text>
  <rect class="qs5-try-bg" x="888" y="208" width="72" height="30" rx="15"/>
  <text class="qs5-try-tx" x="924" y="228" text-anchor="middle">Try poly</text>

  <!-- Column headers -->
  <text class="qs5-col-head" x="52" y="288">Prompts</text>
  <text class="qs5-col-head" x="620" y="288">Trafic</text>
  <text class="qs5-col-head" x="780" y="288">Axes</text>

  <!-- Rows: 15 prompts, pitch-height 38px each -->
  <g font-family="Geist, system-ui">
    <!-- Row 1 -->
    <rect class="qs5-row-sel-bg" x="28" y="302" width="944" height="34" rx="8"/>
    <rect x="44" y="312" width="14" height="14" rx="3" fill="#0062FF"/>
    <path d="M47 319 L50 322 L55 316" stroke="#FFFFFF" stroke-width="1.6" fill="none" stroke-linecap="round" stroke-linejoin="round"/>
    <text class="qs5-row-tx" x="68" y="324">How does AI improve the speed of radiology diagnosis?</text>
    <text x="604" y="324" font-size="11" fill="#0062FF">&#9647;&#9647;&#9647;</text>
    <text class="qs5-traffic-tx" x="636" y="324">&#201;lev&#233;</text>
    <rect class="qs5-axis-expertise-bg" x="780" y="310" width="58" height="18" rx="9"/>
    <text class="qs5-axis-expertise-tx" x="809" y="322" text-anchor="middle">Expertise</text>

    <!-- Row 2 -->
    <rect class="qs5-row-bg" x="28" y="342" width="944" height="34" rx="8"/>
    <rect x="44" y="352" width="14" height="14" rx="3" fill="#FFFFFF" stroke="#CBD5E1"/>
    <text class="qs5-row-tx" x="68" y="364">What are the key algorithms used in radiology AI solutions?</text>
    <text x="604" y="364" font-size="11" fill="#0062FF">&#9647;&#9647;&#9647;</text>
    <text class="qs5-traffic-tx" x="636" y="364">&#201;lev&#233;</text>
    <rect class="qs5-axis-expertise-bg" x="780" y="350" width="58" height="18" rx="9"/>
    <text class="qs5-axis-expertise-tx" x="809" y="362" text-anchor="middle">Expertise</text>

    <!-- Row 3 -->
    <rect class="qs5-row-sel-bg" x="28" y="382" width="944" height="34" rx="8"/>
    <rect x="44" y="392" width="14" height="14" rx="3" fill="#0062FF"/>
    <path d="M47 399 L50 402 L55 396" stroke="#FFFFFF" stroke-width="1.6" fill="none" stroke-linecap="round" stroke-linejoin="round"/>
    <text class="qs5-row-tx" x="68" y="404">How are ethical concerns addressed in radiology AI?</text>
    <text x="604" y="404" font-size="11" fill="#0062FF">&#9647;&#9647;&#9647;</text>
    <text class="qs5-traffic-tx" x="636" y="404">&#201;lev&#233;</text>
    <rect class="qs5-axis-expertise-bg" x="780" y="390" width="58" height="18" rx="9"/>
    <text class="qs5-axis-expertise-tx" x="809" y="402" text-anchor="middle">Expertise</text>

    <!-- Row 4 -->
    <rect class="qs5-row-sel-bg" x="28" y="422" width="944" height="34" rx="8"/>
    <rect x="44" y="432" width="14" height="14" rx="3" fill="#0062FF"/>
    <path d="M47 439 L50 442 L55 436" stroke="#FFFFFF" stroke-width="1.6" fill="none" stroke-linecap="round" stroke-linejoin="round"/>
    <text class="qs5-row-tx" x="68" y="444">What advancements are expected in radiology AI over the next decade?</text>
    <text x="604" y="444" font-size="11" fill="#0062FF">&#9647;&#9647;&#9647;</text>
    <text class="qs5-traffic-tx" x="636" y="444">&#201;lev&#233;</text>
    <rect class="qs5-axis-expertise-bg" x="780" y="430" width="58" height="18" rx="9"/>
    <text class="qs5-axis-expertise-tx" x="809" y="442" text-anchor="middle">Expertise</text>
    <rect class="qs5-axis-inno-bg" x="844" y="430" width="62" height="18" rx="9"/>
    <text class="qs5-axis-inno-tx" x="875" y="442" text-anchor="middle">Innovation</text>

    <!-- Row 5 -->
    <rect class="qs5-row-bg" x="28" y="462" width="944" height="34" rx="8"/>
    <rect x="44" y="472" width="14" height="14" rx="3" fill="#FFFFFF" stroke="#CBD5E1"/>
    <text class="qs5-row-tx" x="68" y="484">What data sets are essential for training radiology AI models?</text>
    <text x="604" y="484" font-size="11" fill="#0062FF">&#9647;&#9647;&#9647;</text>
    <text class="qs5-traffic-tx" x="636" y="484">&#201;lev&#233;</text>
    <rect class="qs5-axis-expertise-bg" x="780" y="470" width="58" height="18" rx="9"/>
    <text class="qs5-axis-expertise-tx" x="809" y="482" text-anchor="middle">Expertise</text>
    <rect class="qs5-axis-inno-bg" x="844" y="470" width="62" height="18" rx="9"/>
    <text class="qs5-axis-inno-tx" x="875" y="482" text-anchor="middle">Innovation</text>

    <!-- Row 6 -->
    <rect class="qs5-row-bg" x="28" y="502" width="944" height="34" rx="8"/>
    <rect x="44" y="512" width="14" height="14" rx="3" fill="#FFFFFF" stroke="#CBD5E1"/>
    <text class="qs5-row-tx" x="68" y="524">How does AI integrate with existing radiology workflows?</text>
    <text x="604" y="524" font-size="11" fill="#0062FF">&#9647;&#9647;&#9647;</text>
    <text class="qs5-traffic-tx" x="636" y="524">&#201;lev&#233;</text>
    <rect class="qs5-axis-expertise-bg" x="780" y="510" width="58" height="18" rx="9"/>
    <text class="qs5-axis-expertise-tx" x="809" y="522" text-anchor="middle">Expertise</text>
    <rect class="qs5-axis-inno-bg" x="844" y="510" width="62" height="18" rx="9"/>
    <text class="qs5-axis-inno-tx" x="875" y="522" text-anchor="middle">Innovation</text>

    <!-- Row 7 -->
    <rect class="qs5-row-sel-bg" x="28" y="542" width="944" height="34" rx="8"/>
    <rect x="44" y="552" width="14" height="14" rx="3" fill="#0062FF"/>
    <path d="M47 559 L50 562 L55 556" stroke="#FFFFFF" stroke-width="1.6" fill="none" stroke-linecap="round" stroke-linejoin="round"/>
    <text class="qs5-row-tx" x="68" y="564">What is the role of deep learning in radiology AI?</text>
    <text x="604" y="564" font-size="11" fill="#F59E0B">&#9647;&#9647;</text>
    <text class="qs5-traffic-tx" x="636" y="564">Moyen</text>
    <rect class="qs5-axis-tech-bg" x="780" y="550" width="62" height="18" rx="9"/>
    <text class="qs5-axis-tech-tx" x="811" y="562" text-anchor="middle">Technology</text>
    <rect class="qs5-axis-policy-bg" x="848" y="550" width="44" height="18" rx="9"/>
    <text class="qs5-axis-policy-tx" x="870" y="562" text-anchor="middle">Policy</text>

    <!-- Row 8 -->
    <rect class="qs5-row-sel-bg" x="28" y="582" width="944" height="34" rx="8"/>
    <rect x="44" y="592" width="14" height="14" rx="3" fill="#0062FF"/>
    <path d="M47 599 L50 602 L55 596" stroke="#FFFFFF" stroke-width="1.6" fill="none" stroke-linecap="round" stroke-linejoin="round"/>
    <text class="qs5-row-tx" x="68" y="604">How can AI assist in the early detection of diseases?</text>
    <text x="604" y="604" font-size="11" fill="#F59E0B">&#9647;&#9647;</text>
    <text class="qs5-traffic-tx" x="636" y="604">Moyen</text>
    <rect class="qs5-axis-policy-bg" x="780" y="590" width="44" height="18" rx="9"/>
    <text class="qs5-axis-policy-tx" x="802" y="602" text-anchor="middle">Policy</text>

    <!-- Row 9 -->
    <rect class="qs5-row-sel-bg" x="28" y="622" width="944" height="34" rx="8"/>
    <rect x="44" y="632" width="14" height="14" rx="3" fill="#0062FF"/>
    <path d="M47 639 L50 642 L55 636" stroke="#FFFFFF" stroke-width="1.6" fill="none" stroke-linecap="round" stroke-linejoin="round"/>
    <text class="qs5-row-tx" x="68" y="644">How does AI handle variations in imaging quality?</text>
    <text x="604" y="644" font-size="11" fill="#F59E0B">&#9647;&#9647;</text>
    <text class="qs5-traffic-tx" x="636" y="644">Moyen</text>
    <rect class="qs5-axis-policy-bg" x="780" y="630" width="44" height="18" rx="9"/>
    <text class="qs5-axis-policy-tx" x="802" y="642" text-anchor="middle">Policy</text>

    <!-- Row 10 -->
    <rect class="qs5-row-bg" x="28" y="662" width="944" height="34" rx="8"/>
    <rect x="44" y="672" width="14" height="14" rx="3" fill="#FFFFFF" stroke="#CBD5E1"/>
    <text class="qs5-row-tx" x="68" y="684">What are the regulatory challenges for AI in radiology?</text>
    <text x="604" y="684" font-size="11" fill="#F59E0B">&#9647;&#9647;</text>
    <text class="qs5-traffic-tx" x="636" y="684">Moyen</text>
    <rect class="qs5-axis-tech-bg" x="780" y="670" width="62" height="18" rx="9"/>
    <text class="qs5-axis-tech-tx" x="811" y="682" text-anchor="middle">Technology</text>

    <!-- Row 11 -->
    <rect class="qs5-row-sel-bg" x="28" y="702" width="944" height="34" rx="8"/>
    <rect x="44" y="712" width="14" height="14" rx="3" fill="#0062FF"/>
    <path d="M47 719 L50 722 L55 716" stroke="#FFFFFF" stroke-width="1.6" fill="none" stroke-linecap="round" stroke-linejoin="round"/>
    <text class="qs5-row-tx" x="68" y="724">What case studies demonstrate successful AI implementation in radiology?</text>
    <text x="604" y="724" font-size="11" fill="#F59E0B">&#9647;&#9647;</text>
    <text class="qs5-traffic-tx" x="636" y="724">Moyen</text>
    <rect class="qs5-axis-tech-bg" x="780" y="710" width="62" height="18" rx="9"/>
    <text class="qs5-axis-tech-tx" x="811" y="722" text-anchor="middle">Technology</text>

    <!-- Row 12 -->
    <rect class="qs5-row-bg" x="28" y="742" width="944" height="34" rx="8"/>
    <rect x="44" y="752" width="14" height="14" rx="3" fill="#FFFFFF" stroke="#CBD5E1"/>
    <text class="qs5-row-tx" x="68" y="764">How does AI impact radiologist work satisfaction?</text>
    <text x="604" y="764" font-size="11" fill="#F59E0B">&#9647;&#9647;</text>
    <text class="qs5-traffic-tx" x="636" y="764">Moyen</text>
    <rect class="qs5-axis-customer-bg" x="780" y="750" width="60" height="18" rx="9"/>
    <text class="qs5-axis-customer-tx" x="810" y="762" text-anchor="middle">Customer</text>

    <!-- Row 13 -->
    <rect class="qs5-row-bg" x="28" y="782" width="944" height="34" rx="8"/>
    <rect x="44" y="792" width="14" height="14" rx="3" fill="#FFFFFF" stroke="#CBD5E1"/>
    <text class="qs5-row-tx" x="68" y="804">How is patient privacy maintained with AI in radiology?</text>
    <text x="604" y="804" font-size="11" fill="#CBD5E1">&#9647;</text>
    <text class="qs5-traffic-tx" x="636" y="804">Faible</text>
    <rect class="qs5-axis-customer-bg" x="780" y="790" width="60" height="18" rx="9"/>
    <text class="qs5-axis-customer-tx" x="810" y="802" text-anchor="middle">Customer</text>

    <!-- Row 14 -->
    <rect class="qs5-row-sel-bg" x="28" y="822" width="944" height="34" rx="8"/>
    <rect x="44" y="832" width="14" height="14" rx="3" fill="#0062FF"/>
    <path d="M47 839 L50 842 L55 836" stroke="#FFFFFF" stroke-width="1.6" fill="none" stroke-linecap="round" stroke-linejoin="round"/>
    <text class="qs5-row-tx" x="68" y="844">What metrics are used to evaluate AI performance in radiology?</text>
    <text x="604" y="844" font-size="11" fill="#CBD5E1">&#9647;</text>
    <text class="qs5-traffic-tx" x="636" y="844">Faible</text>
    <rect class="qs5-axis-customer-bg" x="780" y="830" width="60" height="18" rx="9"/>
    <text class="qs5-axis-customer-tx" x="810" y="842" text-anchor="middle">Customer</text>

    <!-- Row 15 -->
    <rect class="qs5-row-sel-bg" x="28" y="862" width="944" height="34" rx="8"/>
    <rect x="44" y="872" width="14" height="14" rx="3" fill="#0062FF"/>
    <path d="M47 879 L50 882 L55 876" stroke="#FFFFFF" stroke-width="1.6" fill="none" stroke-linecap="round" stroke-linejoin="round"/>
    <text class="qs5-row-tx" x="68" y="884">What are the cost implications of adopting AI in radiology?</text>
    <text x="604" y="884" font-size="11" fill="#CBD5E1">&#9647;</text>
    <text class="qs5-traffic-tx" x="636" y="884">Faible</text>
    <rect class="qs5-axis-customer-bg" x="780" y="870" width="60" height="18" rx="9"/>
    <text class="qs5-axis-customer-tx" x="810" y="882" text-anchor="middle">Customer</text>
  </g>
</svg>
